<?xml version="1.0" standalone="no"?>
<!DOCTYPE svg PUBLIC "-//W3C//DTD SVG 20010904//EN"
 "http://www.w3.org/TR/2001/REC-SVG-20010904/DTD/svg10.dtd">
<svg version="1.0" xmlns="http://www.w3.org/2000/svg"
 width="1237.000000pt" height="1280.000000pt" viewBox="0 0 1237.000000 1280.000000"
 preserveAspectRatio="xMidYMid meet">
<metadata>
Created by potrace 1.15, written by Peter Selinger 2001-2017
</metadata>
<g transform="translate(0.000000,1280.000000) scale(0.100000,-0.100000)"
fill="#000000" stroke="none">
<path d="M4503 12785 c-227 -49 -386 -253 -453 -580 -40 -192 -36 -377 14
-636 32 -169 40 -267 24 -299 -11 -20 -42 -33 -195 -81 -219 -68 -259 -87
-311 -143 -58 -63 -66 -96 -67 -282 l0 -161 -72 -76 c-39 -43 -75 -77 -81 -77
-25 0 -148 -153 -260 -323 -92 -139 -135 -247 -135 -342 -1 -62 5 -83 45 -175
60 -140 65 -154 83 -230 18 -81 19 -141 2 -183 -27 -63 -33 -64 -186 -38 -75
12 -143 24 -152 27 -22 6 -32 -28 -45 -154 -8 -75 13 -142 54 -171 22 -15 224
-81 249 -81 4 0 -21 -17 -56 -37 -84 -49 -166 -130 -192 -188 -32 -72 -59
-233 -59 -350 0 -57 4 -106 8 -109 5 -3 14 18 22 47 28 112 122 198 239 218
39 7 73 20 91 35 37 31 53 30 83 -6 27 -31 32 -49 42 -145 6 -54 11 -64 49
-100 64 -62 239 -125 457 -166 l57 -10 12 -47 c6 -26 34 -105 61 -176 l49
-129 -35 -38 c-62 -69 -109 -179 -126 -293 -26 -187 87 -345 335 -465 304
-149 608 -240 861 -257 52 -4 95 -10 95 -14 0 -4 -10 -15 -21 -26 -41 -37
-108 -140 -199 -309 -138 -253 -151 -271 -197 -279 -225 -41 -602 -196 -803
-331 -359 -240 -597 -533 -759 -931 -119 -291 -200 -475 -239 -538 -55 -91
-156 -191 -282 -280 -63 -44 -152 -117 -197 -162 l-83 -81 0 -95 0 -95 -50
-42 c-28 -23 -60 -59 -71 -79 -11 -20 -36 -61 -54 -91 -21 -34 -41 -84 -52
-131 l-17 -77 -71 33 c-248 114 -738 171 -1070 123 -374 -54 -719 -231 -814
-418 -94 -183 35 -305 439 -415 81 -22 246 -54 317 -61 l61 -7 -9 -31 c-19
-68 -5 -168 35 -244 107 -209 446 -401 1002 -569 138 -41 171 -48 250 -48 l91
-1 54 50 c29 27 84 84 122 125 93 100 156 134 252 134 60 0 80 -5 140 -36 39
-19 111 -52 161 -72 78 -31 103 -36 170 -36 135 1 194 41 194 135 0 27 3 74 6
103 l7 52 76 0 c42 0 103 5 136 11 33 5 74 12 90 14 91 13 162 42 275 113 104
65 349 262 445 359 l80 81 101 -97 c163 -157 323 -276 458 -341 34 -15 162
-63 286 -105 124 -42 250 -89 280 -105 30 -15 219 -127 420 -248 201 -121 367
-219 369 -216 3 2 -9 18 -25 36 -23 24 -25 29 -9 23 11 -4 101 -27 200 -51 99
-24 275 -67 390 -95 574 -139 751 -209 1265 -503 124 -71 244 -140 266 -152
32 -18 55 -46 102 -122 135 -219 324 -368 511 -402 35 -6 154 -12 265 -13 225
-2 298 9 436 66 100 41 295 154 386 222 191 144 313 319 314 450 0 28 -37 233
-82 458 -44 224 -79 410 -76 412 9 9 221 -61 230 -76 4 -8 21 -51 38 -96 59
-157 183 -308 313 -381 77 -43 191 -80 311 -99 140 -22 349 -13 471 20 240 64
552 281 621 432 l27 59 -12 800 -12 801 25 220 c41 349 64 599 71 745 l7 135
-41 122 c-56 170 -92 236 -174 320 -126 130 -221 178 -387 193 -285 26 -656
-82 -945 -275 -179 -120 -283 -226 -344 -350 -52 -108 -60 -162 -66 -480 -7
-367 -11 -412 -34 -418 -15 -4 -312 31 -319 38 -1 1 -7 31 -13 66 -13 72 -57
176 -113 263 -33 52 -36 61 -27 89 26 73 3 135 -62 168 l-42 22 40 14 c95 33
306 63 441 63 76 0 82 2 88 23 10 39 6 111 -9 172 -62 237 -391 466 -750 521
-195 31 -379 9 -965 -112 -17 -4 -59 11 -130 44 -116 55 -228 93 -359 122
-241 52 -332 40 -926 -125 -148 -42 -224 -58 -292 -62 -51 -3 -93 -2 -93 2 0
5 7 16 16 26 14 16 8 23 -78 93 -91 74 -94 78 -132 168 l-39 91 24 20 c43 35
162 101 211 118 l49 16 -108 85 c-204 161 -339 333 -304 387 19 30 109 -49
200 -173 49 -68 50 -69 57 -41 16 65 -16 460 -52 632 -13 63 -38 148 -58 193
-5 13 13 15 126 18 497 11 864 130 1094 357 109 107 224 301 224 377 0 39 -36
87 -93 124 -23 16 -44 33 -46 38 -1 4 44 34 101 66 l103 57 17 109 c57 377 43
1214 -31 1854 l-19 165 21 40 c21 38 22 53 22 290 -1 230 -3 263 -30 413 -27
154 -28 168 -17 260 16 127 15 215 -2 256 -20 49 -69 99 -154 160 -128 90
-207 180 -233 264 -11 37 -10 60 6 160 22 143 16 418 -14 612 -42 269 -79 307
-320 335 -117 14 -137 18 -150 37 -8 12 -47 61 -87 108 -121 146 -256 255
-417 336 -239 121 -450 145 -615 69 -63 -29 -252 -146 -252 -156 0 -4 21 -10
48 -14 88 -12 297 -63 345 -84 100 -43 27 -96 -133 -96 -102 1 -112 4 -355
112 -269 120 -319 139 -500 188 -474 127 -628 151 -772 120z m100 -6971 c10
-11 -28 -97 -71 -160 -48 -72 -68 -128 -86 -249 -10 -68 -28 -124 -73 -230
-34 -77 -107 -254 -163 -394 -155 -385 -229 -529 -346 -673 -54 -65 -184 -178
-205 -178 -6 0 -22 -9 -37 -19 -15 -11 -193 -69 -397 -131 -429 -129 -543
-165 -679 -214 -55 -20 -101 -34 -103 -32 -7 7 33 79 58 106 13 14 58 51 101
83 206 155 374 406 531 793 194 476 458 812 825 1048 199 129 608 287 645 250z
m-3144 -2798 c132 -24 201 -44 276 -79 l69 -33 -109 -38 c-279 -96 -507 -210
-656 -327 -26 -21 -29 -21 -145 -6 -277 36 -463 109 -488 192 -10 34 34 106
89 147 91 68 277 135 437 158 91 13 428 4 527 -14z"/>
</g>
</svg>
