<?xml version="1.0" standalone="no"?>
<!DOCTYPE svg PUBLIC "-//W3C//DTD SVG 20010904//EN"
 "http://www.w3.org/TR/2001/REC-SVG-20010904/DTD/svg10.dtd">
<svg version="1.0" xmlns="http://www.w3.org/2000/svg"
 width="1230.000000pt" height="1280.000000pt" viewBox="0 0 1230.000000 1280.000000"
 preserveAspectRatio="xMidYMid meet">
<metadata>
Created by potrace 1.15, written by Peter Selinger 2001-2017
</metadata>
<g transform="translate(0.000000,1280.000000) scale(0.100000,-0.100000)"
fill="#000000" stroke="none">
<path d="M3749 12729 l-64 -71 -120 -3 c-206 -5 -273 -31 -399 -154 -50 -49
-111 -99 -136 -111 -119 -60 -268 -198 -316 -292 -14 -27 -42 -118 -64 -203
-27 -105 -62 -207 -109 -317 -71 -166 -91 -242 -111 -406 l-12 -92 33 -43
c161 -207 187 -234 236 -250 75 -24 366 -115 390 -122 13 -3 34 2 55 15 41 25
73 25 218 0 63 -10 221 -37 350 -59 374 -63 467 -84 599 -133 l53 -20 -74 -77
c-348 -355 -601 -730 -697 -1032 -164 -518 -104 -1145 184 -1939 177 -487 380
-785 765 -1124 111 -98 275 -229 325 -260 42 -27 255 -199 283 -229 l24 -25
-60 -71 c-37 -44 -62 -85 -66 -106 -8 -43 7 -104 36 -140 l21 -27 -29 -24
c-78 -65 -324 -221 -444 -282 -224 -114 -399 -171 -760 -252 -396 -87 -565
-109 -700 -89 -168 24 -641 9 -860 -27 -173 -29 -260 -69 -357 -163 -26 -25
-52 -41 -66 -41 -36 0 -72 -34 -101 -93 -46 -94 -56 -168 -56 -449 0 -142 -4
-258 -8 -258 -5 0 -80 9 -168 20 -477 58 -800 50 -1037 -26 -44 -14 -95 -35
-115 -48 -158 -100 -302 -369 -373 -701 -20 -92 -17 -345 5 -425 75 -275 215
-423 486 -514 145 -48 245 -60 500 -60 228 0 276 4 455 39 252 51 795 245
1334 478 l125 54 108 -28 c244 -64 396 -152 467 -272 17 -28 20 -38 9 -42 -26
-9 -227 -64 -396 -110 -497 -133 -784 -264 -988 -448 -123 -111 -168 -298
-153 -627 25 -504 252 -828 679 -968 171 -56 309 -76 540 -76 218 -1 294 9
438 58 272 93 756 460 1226 930 l129 129 52 -17 c28 -9 141 -31 251 -50 230
-39 271 -50 449 -119 153 -59 235 -81 355 -98 181 -24 311 1 397 77 18 16 44
37 58 47 33 24 67 93 104 209 16 51 52 167 81 258 29 91 80 226 115 300 70
150 87 199 110 312 62 312 46 714 -55 1323 -118 716 -153 967 -165 1195 -5
104 -5 105 9 55 37 -128 105 -273 190 -409 45 -71 61 -107 76 -175 20 -91 30
-104 90 -121 99 -28 150 3 150 92 0 85 -36 151 -165 303 -144 170 -216 315
-240 485 -17 121 -29 340 -18 340 21 0 147 -157 223 -278 123 -195 139 -201
532 -209 311 -6 287 -16 416 160 100 137 123 177 124 215 1 55 -48 320 -63
338 -20 24 -118 54 -176 54 -31 0 -107 4 -167 10 -61 5 -187 13 -281 17 l-170
7 185 8 c199 7 412 22 580 39 58 6 138 14 179 17 98 9 109 23 121 155 14 149
-4 229 -69 300 l-41 44 103 43 c423 178 771 372 925 515 256 236 395 733 418
1490 7 211 -5 445 -32 648 -9 65 -13 121 -10 124 10 10 218 -47 299 -82 207
-89 474 -301 697 -551 58 -65 115 -129 128 -142 l23 -24 21 22 c15 16 27 20
47 16 14 -4 62 -9 106 -12 65 -5 91 -2 139 15 61 22 162 76 206 110 l25 20
-50 51 c-222 229 -700 510 -1115 657 l-125 44 115 -6 c174 -9 249 -21 341 -53
167 -59 326 -141 614 -320 306 -190 302 -188 333 -170 15 9 48 19 74 22 65 10
99 29 169 94 58 53 184 218 241 315 26 44 28 45 108 63 53 11 93 26 111 41 54
46 112 206 150 419 l20 112 -42 103 c-23 57 -54 149 -70 204 -34 116 -88 211
-189 333 -39 46 -70 89 -70 95 0 7 -20 79 -45 161 -70 234 -120 293 -341 403
-115 56 -133 68 -137 93 -8 38 -105 141 -180 189 -77 51 -141 66 -216 50 -82
-17 -146 -48 -309 -151 -495 -310 -698 -460 -985 -728 -140 -132 -278 -243
-345 -280 -15 -8 -53 -30 -85 -49 -56 -32 -59 -32 -72 -15 -8 11 -15 22 -15
26 -1 22 -214 262 -457 513 -377 391 -596 580 -783 679 -101 53 -251 101 -261
85 -4 -7 -11 -9 -17 -5 -6 3 -70 15 -144 26 -565 83 -1397 77 -1913 -16 -44
-7 -96 -17 -116 -20 l-36 -6 -7 63 c-4 35 -7 131 -8 212 l-2 149 -28 14 c-28
15 -125 18 -191 7 -37 -6 -39 -7 -32 -37 3 -17 10 -55 16 -83 8 -50 13 -74 39
-220 22 -119 19 -125 -9 -21 -46 166 -148 464 -190 553 -68 146 -404 739 -440
778 -45 49 -127 97 -165 97 -15 0 -59 -16 -96 -36 l-68 -35 -236 100 c-130 56
-238 101 -240 101 -2 0 -32 -32 -67 -71z m4128 -6899 c95 -57 54 -149 -82
-185 -33 -9 -107 -20 -164 -25 -107 -10 -358 -2 -344 10 7 6 254 109 453 189
90 36 96 36 137 11z m-372 -579 c192 -37 258 -54 291 -76 l26 -17 -79 -49
c-162 -104 -187 -114 -288 -113 -134 1 -186 24 -301 135 -73 70 -101 91 -138
101 -40 11 -56 25 -42 39 3 2 87 5 188 7 170 3 195 1 343 -27z"/>
</g>
</svg>
