<svg xmlns="http://www.w3.org/2000/svg" version="1.1" xmlns:xlink="http://www.w3.org/1999/xlink" xmlns:svgjs="http://svgjs.com/svgjs" width="1440" height="560" preserveAspectRatio="none" viewBox="0 0 1440 560"><g mask="url(&quot;#SvgjsMask2513&quot;)" fill="none"><rect width="1440" height="560" x="0" y="0" fill="url(#SvgjsLinearGradient2514)"></rect><use xlink:href="#SvgjsG2523" transform="translate(0, 0)" fill="rgba(221, 60, 134, 1)"></use><use xlink:href="#SvgjsG2523" transform="translate(781.9999999999999, 0)" fill="rgba(221, 60, 134, 1)"></use></g><defs><mask id="SvgjsMask2513"><rect width="1440" height="560" fill="#ffffff"></rect></mask><linearGradient x1="50%" y1="100%" x2="50%" y2="0%" gradientUnits="userSpaceOnUse" id="SvgjsLinearGradient2514"><stop stop-color="#0e2a47" offset="0"></stop><stop stop-color="rgba(61, 84, 114, 1)" offset="1"></stop></linearGradient><g id="SvgjsG2515"><path d="M6.05 8.41L13.72 6.21l0.61 2.13-7.67 2.2z"></path><path d="M10.61 0.82l2.22 1.23-3.89 7.02L6.72 7.84z"></path><path d="M6.67 10.55L4.47 2.88l2.12-0.61L8.79 9.94zM-0.51 9.32l12.02 6.66-1.1 1.98L-1.6 11.3z"></path><path d="M1.09 5.48l1.98 1.1-3.1 5.59-1.98-1.1z m10.73 5.94l1.98 1.1-3.1 5.6-1.98-1.1z"></path></g><g id="SvgjsG2516"><path d="M2.6 8.4C4.2 5.51 11.77 1.36 11.77 1.36s0.48 8.62-1.12 11.51c-1.09 1.97-3.63 3.44-6.34 1.94-2.71-1.5-2.8-4.44-1.71-6.41z" fill-rule="evenodd"></path></g><g id="SvgjsG2519"><path d="M4.12 14.41C0.4 12.35-0.95 7.64 1.12 3.92 3.18 0.2 7.88-1.15 11.6 0.91S16.68 7.68 14.61 11.4c-2.06 3.72-6.77 5.07-10.49 3.01z m0.93-1.67c2.8 1.55 6.34 0.54 7.89-2.27 1.55-2.8 0.53-6.34-2.26-7.89-2.8-1.55-6.34-0.53-7.89 2.26-1.56 2.8-0.54 6.34 2.26 7.9z"></path><path d="M7.4 8.57a0.57 0.57 0 0 1-0.46-0.31 0.58 0.58 0 0 1-0.03-0.47L9.07 3.86a0.58 0.58 0 0 1 1.02 0.57l-1.69 3.04 3.28 0.22a0.58 0.58 0 0 1 0.54 0.61c-0.02 0.32-0.3 0.56-0.61 0.54l-4.21-0.27z"></path></g><g id="SvgjsG2518"><path d="M11.37 10.15a46.75 46.75 0 0 1-0.26-0.62c-0.07-0.17-0.14-0.35-0.22-0.51-0.44-1.03-0.93-2.02-1.78-2.6A2.81 2.81 0 0 0 8.9 6.29c-0.08-0.04-0.15-0.07-0.23-0.11-0.94-0.41-2.05-0.31-3.16-0.14l0.05 0.11c0.05 0.13 0.1 0.25 0.15 0.38C6.81 6.36 7.83 6.28 8.65 6.73c0.81 0.45 1.29 1.35 1.73 2.37a35.1 35.1 0 0 1 0.26 0.63c0.07 0.17 0.14 0.33 0.21 0.5C11.32 11.35 11.87 12.43 12.85 12.98c0.38 0.21 0.8 0.32 1.24 0.37l0.27-0.49c-0.45-0.03-0.88-0.12-1.26-0.33-0.82-0.45-1.29-1.36-1.73-2.38z"></path><path d="M11.37 9.29c0.01 0.03 0.03 0.07 0.04 0.11 0.05 0.13 0.11 0.25 0.16 0.38 0.4-0.06 0.79-0.11 1.16-0.13l-0.66 1.2c0.09 0.18 0.19 0.35 0.3 0.51L13.31 9.66c0.35 0.02 0.67 0.09 0.98 0.22l-1.23 2.22c0.06 0.05 0.13 0.09 0.2 0.13 0.08 0.04 0.16 0.08 0.24 0.11L14.73 10.12c0.28 0.2 0.52 0.45 0.73 0.75L15.73 10.38C15.46 10.04 15.15 9.75 14.77 9.54c-0.99-0.55-2.19-0.44-3.4-0.25z m-6.86-2.57c-0.02-0.04-0.03-0.08-0.05-0.12-0.05-0.12-0.1-0.24-0.16-0.36-1.1 0.17-2.12 0.24-2.93-0.21C1 5.82 0.7 5.51 0.44 5.13l-0.27 0.49C0.44 5.97 0.75 6.27 1.13 6.48c0.98 0.54 2.18 0.44 3.38 0.24z"></path><path d="M1.32 5.59c0.07 0.05 0.14 0.1 0.21 0.14 0.08 0.04 0.15 0.08 0.23 0.11L3 3.62c0.27 0.19 0.5 0.43 0.7 0.71-0.01 0.01-0.02 0.02-0.02 0.03l-0.92 1.67a5.82 5.82 0 0 0 0.59-0.02L4.01 4.82c0.28 0.5 0.52 1.07 0.76 1.66C5.3 7.76 5.85 9.1 6.98 9.72c0.98 0.54 2.18 0.44 3.39 0.25l-0.06-0.12c-0.05-0.12-0.1-0.24-0.15-0.36-0.39 0.06-0.77 0.11-1.13 0.12L9.68 8.43A5.82 5.82 0 0 0 9.38 7.92l-0.92 1.66c0 0.01-0.01 0.02-0.01 0.02-0.35-0.02-0.68-0.09-0.98-0.21L8.7 7.17a1.97 1.97 0 0 0-0.22-0.14c-0.07-0.04-0.15-0.07-0.23-0.11l-1.23 2.22c-0.27-0.19-0.5-0.44-0.71-0.71 0.01-0.01 0.02-0.02 0.03-0.03L7.26 6.73a5.63 5.63 0 0 0-0.59 0.02l-0.67 1.19c-0.28-0.5-0.52-1.07-0.76-1.66C4.71 4.99 4.16 3.66 3.03 3.03c-0.38-0.21-0.78-0.33-1.21-0.38l-0.27 0.48c0.35 0.03 0.69 0.1 1 0.24L1.32 5.59z"></path></g><g id="SvgjsG2521"><path d="M2.9 5.9L0.71 4.69 1.35 3.52l2.2 1.22-0.65 1.16zM5.86 2.9L5.17 0.49l1.27-0.36 0.69 2.4-1.27 0.37z m-3.3 5.96l0.36 1.27-2.41 0.69-0.36-1.27 2.41-0.69z m8.67-5.35l-1.16-0.64L11.29 0.67l1.16 0.65-1.22 2.19z m-6.47 8.94l1.16 0.64-1.21 2.2-1.17-0.65 1.22-2.19zM13.46 7.11l-0.39-1.28 2.43-0.68 0.37 1.27-2.41 0.69z m-3.29 5.94l0.67 2.43-1.27 0.37-0.69-2.41 1.29-0.39z m5.15-1.78l-0.64 1.16-2.2-1.22L13.13 10.05l2.19 1.22z"></path><path d="M4.25 5.9a4.18 4.18 0 1 0 7.32 4.06 4.18 4.18 0 1 0-7.32-4.06"></path></g><g id="SvgjsG2517"><path d="M13.63 12.76c0.26 0.14 0.61 0.07 0.79-0.17 0 0 0.25-0.33 0.49-0.76s0.39-0.81 0.39-0.81c0.11-0.28-0.02-0.62-0.28-0.76l-1.33-0.74c-0.26-0.14-0.44-0.46-0.4-0.7s0.3-0.94 0.59-1.02l1.47-0.42c0.28-0.08 0.47-0.39 0.41-0.67l-0.49-1.72c-0.11-0.28-0.43-0.43-0.71-0.36l-1.47 0.42c-0.28 0.08-0.63-0.01-0.76-0.21s-0.45-0.88-0.31-1.14L12.76 2.37c0.14-0.26 0.07-0.61-0.17-0.79 0 0-0.33-0.25-0.76-0.49s-0.81-0.39-0.81-0.39c-0.28-0.11-0.62 0.02-0.76 0.28l-0.74 1.33c-0.14 0.26-0.46 0.43-0.7 0.4s-0.94-0.3-1.02-0.59l-0.42-1.47C7.3 0.37 7 0.18 6.71 0.24l-1.73 0.49c-0.28 0.11-0.43 0.43-0.35 0.71l0.42 1.47c0.08 0.28-0.01 0.63-0.21 0.76s-0.88 0.45-1.14 0.31L2.37 3.24c-0.26-0.14-0.61-0.07-0.79 0.17 0 0-0.25 0.33-0.49 0.76s-0.39 0.81-0.39 0.81c-0.11 0.28 0.02 0.62 0.28 0.76l1.33 0.74c0.26 0.14 0.43 0.46 0.4 0.7-0.04 0.24-0.3 0.94-0.59 1.02l-1.47 0.42C0.37 8.7 0.18 9 0.24 9.29l0.49 1.73c0.11 0.28 0.43 0.43 0.71 0.35l1.47-0.42c0.28-0.08 0.63 0.01 0.76 0.21s0.45 0.88 0.31 1.14l-0.74 1.33c-0.14 0.26-0.07 0.61 0.17 0.79 0 0 0.33 0.25 0.76 0.49s0.81 0.39 0.81 0.39c0.28 0.11 0.62-0.02 0.77-0.28l0.73-1.33c0.14-0.26 0.46-0.44 0.7-0.39 0.24 0.04 0.94 0.3 1.02 0.58l0.42 1.47c0.08 0.28 0.39 0.47 0.67 0.41l1.73-0.49c0.28-0.11 0.43-0.43 0.35-0.71l-0.42-1.46c-0.08-0.28 0.01-0.63 0.21-0.77 0.2-0.14 0.88-0.45 1.14-0.31l1.33 0.74zM6.6 10.53c-1.4-0.77-1.9-2.53-1.13-3.93 0.77-1.4 2.53-1.9 3.93-1.13S11.3 8.01 10.53 9.4 7.99 11.3 6.6 10.53z"></path></g><g id="SvgjsG2520"><path d="M10.01 4.53c-0.97-0.54-1.33-1.76-0.79-2.72C9.75 0.85 10.97 0.5 11.94 1.04c0.97 0.54 1.33 1.76 0.8 2.72-0.53 0.96-1.76 1.31-2.73 0.77zM11.28 14.69l1.29-5.59C13.08 6.86 11.43 6.02 11.43 6.02L7.99 4.11s-1.58-0.96-3.21 0.67L0.72 8.84c-0.38 0.38-0.32 0.86 0.01 1.2 0.33 0.33 0.84 0.36 1.14 0.05l3.96-3.96 0.66 0.36L0.17 12.81 8.2 17.26 10.21 8.55l0.66 0.37-1.26 5.45c-0.1 0.42 0.2 0.84 0.65 0.95 0.46 0.11 0.9-0.1 1.02-0.63z m-2.8-1.26c-0.8 1.44-2.61 1.96-4.04 1.16-1.44-0.8-1.96-2.61-1.17-4.05 0.8-1.44 2.61-1.96 4.05-1.16 1.44 0.8 1.96 2.61 1.16 4.05z"></path><path d="M6.79 11.66a0.71 0.71 0 0 1 0.16-1 0.72 0.72 0 0 1 1 0.17 0.72 0.72 0 0 1-0.16 1 0.71 0.71 0 0 1-1-0.17z m0.1 1.2a361.54 361.54 0 0 1-0.99 0.71c-0.4 0.29-0.96 0.19-1.25-0.21-0.09-0.13-0.14-0.28-0.17-0.43-0.04-0.22 0.11-0.69 0.12-0.68-0.18 0.02-0.63 0.04-0.82 0.06a0.32 0.32 0 0 1-0.35-0.28 0.32 0.32 0 0 1 0.28-0.35 133.4 133.4 0 0 1 1.02-0.1 0.42 0.42 0 0 1 0.47 0.38l-0.03 0.6 0.79-0.54-0.28-0.28a0.31 0.31 0 0 1-0.08-0.22l0.02-0.79a0.31 0.31 0 1 1 0.61 0.02L6.22 11.4c0.14 0.15 0.74 0.75 0.74 0.75 0.03 0.03 0.05 0.07 0.06 0.11a0.46 0.46 0 0 1-0.13 0.59z"></path></g><g id="SvgjsG2522"><path d="M11.5 2.84a0.89 0.89 0 0 0 1.22-0.35A0.89 0.89 0 0 0 12.37 1.28a0.89 0.89 0 0 0-0.87 1.56z m-4.23-2.34c-0.44-0.24-0.6-0.79-0.35-1.22C7.16-1.15 7.7-1.31 8.14-1.07c0.44 0.24 0.6 0.79 0.36 1.23s-0.79 0.59-1.23 0.34z"></path><path d="M13.46 7.15a0.63 0.63 0 1 0 1.1 0.61 0.63 0.63 0 1 0-1.1-0.61"></path><path d="M14.35 8.71L12.87 7.9c-0.01 0-0.47-0.32-0.46-0.32l0.57-2.5C13.21 4.07 12.47 3.7 12.47 3.7L10.47 2.59s-0.71-0.43-1.44 0.3l-0.89 0.89 0.28-1.23c0.23-1.01-0.51-1.38-0.51-1.38l-1.55-0.86s-0.71-0.43-1.44 0.3L3.09 2.44c-0.17 0.17-0.15 0.39 0.01 0.53 0.15 0.15 0.38 0.16 0.51 0.03l1.78-1.78 0.3 0.16-2.92 3.17 0.78 0.44-1.44 2.6a0.44 0.44 0 0 0 0.17 0.6 0.45 0.45 0 0 0 0.61-0.17L4.33 5.42l0.33 0.18-1.44 2.6a0.44 0.44 0 0 0 0.17 0.61 0.45 0.45 0 0 0 0.61-0.18L5.44 6.03l0.77 0.43 1.15-4.15 0.3 0.16-0.56 2.43c-0.01 0.04-0.01 0.08-0.01 0.12 0.01 0.12 0.09 0.23 0.2 0.29 0.11 0.07 0.24 0.07 0.35 0.02a0.33 0.33 0 0 0 0.11-0.08l1.75-1.75 0.27 0.15-3.43 6.19a0.53 0.53 0 0 0 0.21 0.71 0.52 0.52 0 0 0 0.71-0.2l1.95-3.53 0.34 0.19-1.95 3.52a0.52 0.52 0 0 0 0.2 0.71c0.25 0.14 0.57 0.05 0.71-0.2l3.44-6.19 0.29 0.17-0.59 2.43c-0.03 0.12 0.02 0.24 0.11 0.33 0 0 0 0.01 0.01 0.01 0.08 0.07 0.44 0.43 0.7 0.69l-2.12 3.84a0.37 0.37 0 0 0 0.64 0.36l1.06-1.92 0.25 0.14-1.06 1.91c-0.1 0.18-0.03 0.4 0.14 0.5s0.4 0.03 0.51-0.14l1.98-3.59 0.25 0.14-0.67 1.22c-0.07 0.13-0.03 0.3 0.1 0.37 0.13 0.07 0.3 0.02 0.37-0.11L14.69 9.82c0.21-0.39 0.05-0.89-0.34-1.11z m-5.89 6.68a46.75 46.75 0 0 1-0.26-0.61c-0.07-0.17-0.14-0.35-0.21-0.52-0.44-1.03-0.93-2.02-1.79-2.59a2.81 2.81 0 0 0-0.21-0.14c-0.08-0.04-0.15-0.07-0.23-0.1-0.94-0.41-2.05-0.31-3.16-0.14l0.05 0.11c0.05 0.13 0.1 0.25 0.15 0.37 1.1-0.17 2.12-0.25 2.94 0.21 0.81 0.45 1.29 1.35 1.73 2.37a35.1 35.1 0 0 1 0.26 0.63c0.07 0.17 0.14 0.33 0.21 0.5C8.41 16.6 8.96 17.68 9.94 18.22c0.38 0.21 0.8 0.32 1.24 0.37l0.27-0.48c-0.45-0.03-0.88-0.12-1.26-0.33-0.82-0.45-1.29-1.36-1.73-2.39z"></path><path d="M8.46 14.54c0.01 0.03 0.03 0.07 0.04 0.1 0.05 0.13 0.11 0.25 0.16 0.38 0.4-0.06 0.79-0.11 1.16-0.12l-0.66 1.2c0.09 0.18 0.19 0.35 0.3 0.51L10.4 14.91c0.35 0.02 0.67 0.09 0.98 0.22l-1.23 2.21c0.06 0.05 0.13 0.09 0.2 0.14 0.08 0.04 0.16 0.08 0.25 0.11l1.23-2.22c0.28 0.2 0.52 0.45 0.72 0.75l0.27-0.49c-0.27-0.34-0.58-0.63-0.96-0.84-0.99-0.55-2.19-0.44-3.4-0.25z m-6.86-2.57c-0.02-0.04-0.03-0.08-0.05-0.12-0.05-0.12-0.1-0.24-0.15-0.36-1.1 0.17-2.12 0.24-2.94-0.21C-1.91 11.07-2.21 10.76-2.46 10.38l-0.28 0.49C-2.47 11.22-2.16 11.51-1.78 11.72c0.98 0.54 2.18 0.44 3.38 0.25z"></path><path d="M-1.59 10.84c0.07 0.05 0.14 0.1 0.21 0.14 0.08 0.04 0.15 0.08 0.24 0.11L0.09 8.86c0.27 0.19 0.5 0.43 0.71 0.72-0.01 0.01-0.02 0.02-0.03 0.03l-0.92 1.67a5.82 5.82 0 0 0 0.59-0.02L1.1 10.07c0.28 0.5 0.52 1.07 0.76 1.65C2.39 13.01 2.94 14.34 4.08 14.97c0.98 0.54 2.18 0.44 3.38 0.25l-0.06-0.12c-0.05-0.12-0.1-0.24-0.15-0.36-0.39 0.06-0.77 0.11-1.13 0.12l0.65-1.18a5.82 5.82 0 0 0-0.3-0.51l-0.92 1.65c-0.01 0.01-0.01 0.02-0.01 0.03-0.35-0.02-0.68-0.09-0.98-0.21L5.79 12.42a1.97 1.97 0 0 0-0.23-0.15c-0.07-0.04-0.15-0.07-0.22-0.1L4.11 14.39c-0.27-0.19-0.5-0.43-0.71-0.72 0.01-0.01 0.02-0.02 0.03-0.03l0.92-1.66a5.55 5.55 0 0 0-0.59 0.01l-0.67 1.2c-0.28-0.5-0.52-1.07-0.76-1.66-0.53-1.29-1.08-2.62-2.21-3.25-0.38-0.21-0.78-0.33-1.21-0.38l-0.27 0.48c0.35 0.03 0.69 0.1 1 0.24l-1.23 2.22z"></path></g><g id="SvgjsG2523"><use xlink:href="#SvgjsG2515" transform="translate(0, 0) scale(2.3)" fill="rgba(221, 60, 134, 1)"></use><use xlink:href="#SvgjsG2516" transform="translate(0, 78.19999999999999) scale(2.3)" fill="rgba(221, 60, 134, 1)"></use><use xlink:href="#SvgjsG2515" transform="translate(0, 156.39999999999998) scale(2.3)" fill="rgba(221, 60, 134, 1)"></use><use xlink:href="#SvgjsG2517" transform="translate(0, 234.59999999999997) scale(2.3)" fill="rgba(221, 60, 134, 1)"></use><use xlink:href="#SvgjsG2518" transform="translate(0, 312.79999999999995) scale(2.3)" fill="rgba(221, 60, 134, 1)"></use><use xlink:href="#SvgjsG2517" transform="translate(0, 390.99999999999994) scale(2.3)" fill="rgba(221, 60, 134, 1)"></use><use xlink:href="#SvgjsG2518" transform="translate(0, 469.19999999999993) scale(2.3)" fill="rgba(221, 60, 134, 1)"></use><use xlink:href="#SvgjsG2517" transform="translate(0, 547.3999999999999) scale(2.3)" fill="rgba(221, 60, 134, 1)"></use><use xlink:href="#SvgjsG2515" transform="translate(78.19999999999999, 0) scale(2.3)" fill="rgba(221, 60, 134, 1)"></use><use xlink:href="#SvgjsG2519" transform="translate(78.19999999999999, 78.19999999999999) scale(2.3)" fill="rgba(221, 60, 134, 1)"></use><use xlink:href="#SvgjsG2518" transform="translate(78.19999999999999, 156.39999999999998) scale(2.3)" fill="rgba(221, 60, 134, 1)"></use><use xlink:href="#SvgjsG2520" transform="translate(78.19999999999999, 234.59999999999997) scale(2.3)" fill="rgba(221, 60, 134, 1)"></use><use xlink:href="#SvgjsG2516" transform="translate(78.19999999999999, 312.79999999999995) scale(2.3)" fill="rgba(221, 60, 134, 1)"></use><use xlink:href="#SvgjsG2518" transform="translate(78.19999999999999, 390.99999999999994) scale(2.3)" fill="rgba(221, 60, 134, 1)"></use><use xlink:href="#SvgjsG2517" transform="translate(78.19999999999999, 469.19999999999993) scale(2.3)" fill="rgba(221, 60, 134, 1)"></use><use xlink:href="#SvgjsG2515" transform="translate(78.19999999999999, 547.3999999999999) scale(2.3)" fill="rgba(221, 60, 134, 1)"></use><use xlink:href="#SvgjsG2520" transform="translate(156.39999999999998, 0) scale(2.3)" fill="rgba(221, 60, 134, 1)"></use><use xlink:href="#SvgjsG2520" transform="translate(156.39999999999998, 78.19999999999999) scale(2.3)" fill="rgba(221, 60, 134, 1)"></use><use xlink:href="#SvgjsG2521" transform="translate(156.39999999999998, 156.39999999999998) scale(2.3)" fill="rgba(221, 60, 134, 1)"></use><use xlink:href="#SvgjsG2519" transform="translate(156.39999999999998, 234.59999999999997) scale(2.3)" fill="rgba(221, 60, 134, 1)"></use><use xlink:href="#SvgjsG2518" transform="translate(156.39999999999998, 312.79999999999995) scale(2.3)" fill="rgba(221, 60, 134, 1)"></use><use xlink:href="#SvgjsG2518" transform="translate(156.39999999999998, 390.99999999999994) scale(2.3)" fill="rgba(221, 60, 134, 1)"></use><use xlink:href="#SvgjsG2518" transform="translate(156.39999999999998, 469.19999999999993) scale(2.3)" fill="rgba(221, 60, 134, 1)"></use><use xlink:href="#SvgjsG2516" transform="translate(156.39999999999998, 547.3999999999999) scale(2.3)" fill="rgba(221, 60, 134, 1)"></use><use xlink:href="#SvgjsG2515" transform="translate(234.59999999999997, 0) scale(2.3)" fill="rgba(221, 60, 134, 1)"></use><use xlink:href="#SvgjsG2519" transform="translate(234.59999999999997, 78.19999999999999) scale(2.3)" fill="rgba(221, 60, 134, 1)"></use><use xlink:href="#SvgjsG2518" transform="translate(234.59999999999997, 156.39999999999998) scale(2.3)" fill="rgba(221, 60, 134, 1)"></use><use xlink:href="#SvgjsG2516" transform="translate(234.59999999999997, 234.59999999999997) scale(2.3)" fill="rgba(221, 60, 134, 1)"></use><use xlink:href="#SvgjsG2521" transform="translate(234.59999999999997, 312.79999999999995) scale(2.3)" fill="rgba(221, 60, 134, 1)"></use><use xlink:href="#SvgjsG2521" transform="translate(234.59999999999997, 390.99999999999994) scale(2.3)" fill="rgba(221, 60, 134, 1)"></use><use xlink:href="#SvgjsG2519" transform="translate(234.59999999999997, 469.19999999999993) scale(2.3)" fill="rgba(221, 60, 134, 1)"></use><use xlink:href="#SvgjsG2522" transform="translate(234.59999999999997, 547.3999999999999) scale(2.3)" fill="rgba(221, 60, 134, 1)"></use><use xlink:href="#SvgjsG2517" transform="translate(312.79999999999995, 0) scale(2.3)" fill="rgba(221, 60, 134, 1)"></use><use xlink:href="#SvgjsG2516" transform="translate(312.79999999999995, 78.19999999999999) scale(2.3)" fill="rgba(221, 60, 134, 1)"></use><use xlink:href="#SvgjsG2520" transform="translate(312.79999999999995, 156.39999999999998) scale(2.3)" fill="rgba(221, 60, 134, 1)"></use><use xlink:href="#SvgjsG2515" transform="translate(312.79999999999995, 234.59999999999997) scale(2.3)" fill="rgba(221, 60, 134, 1)"></use><use xlink:href="#SvgjsG2521" transform="translate(312.79999999999995, 312.79999999999995) scale(2.3)" fill="rgba(221, 60, 134, 1)"></use><use xlink:href="#SvgjsG2521" transform="translate(312.79999999999995, 390.99999999999994) scale(2.3)" fill="rgba(221, 60, 134, 1)"></use><use xlink:href="#SvgjsG2520" transform="translate(312.79999999999995, 469.19999999999993) scale(2.3)" fill="rgba(221, 60, 134, 1)"></use><use xlink:href="#SvgjsG2516" transform="translate(312.79999999999995, 547.3999999999999) scale(2.3)" fill="rgba(221, 60, 134, 1)"></use><use xlink:href="#SvgjsG2517" transform="translate(390.99999999999994, 0) scale(2.3)" fill="rgba(221, 60, 134, 1)"></use><use xlink:href="#SvgjsG2521" transform="translate(390.99999999999994, 78.19999999999999) scale(2.3)" fill="rgba(221, 60, 134, 1)"></use><use xlink:href="#SvgjsG2520" transform="translate(390.99999999999994, 156.39999999999998) scale(2.3)" fill="rgba(221, 60, 134, 1)"></use><use xlink:href="#SvgjsG2518" transform="translate(390.99999999999994, 234.59999999999997) scale(2.3)" fill="rgba(221, 60, 134, 1)"></use><use xlink:href="#SvgjsG2516" transform="translate(390.99999999999994, 312.79999999999995) scale(2.3)" fill="rgba(221, 60, 134, 1)"></use><use xlink:href="#SvgjsG2518" transform="translate(390.99999999999994, 390.99999999999994) scale(2.3)" fill="rgba(221, 60, 134, 1)"></use><use xlink:href="#SvgjsG2518" transform="translate(390.99999999999994, 469.19999999999993) scale(2.3)" fill="rgba(221, 60, 134, 1)"></use><use xlink:href="#SvgjsG2517" transform="translate(390.99999999999994, 547.3999999999999) scale(2.3)" fill="rgba(221, 60, 134, 1)"></use><use xlink:href="#SvgjsG2519" transform="translate(469.19999999999993, 0) scale(2.3)" fill="rgba(221, 60, 134, 1)"></use><use xlink:href="#SvgjsG2522" transform="translate(469.19999999999993, 78.19999999999999) scale(2.3)" fill="rgba(221, 60, 134, 1)"></use><use xlink:href="#SvgjsG2516" transform="translate(469.19999999999993, 156.39999999999998) scale(2.3)" fill="rgba(221, 60, 134, 1)"></use><use xlink:href="#SvgjsG2516" transform="translate(469.19999999999993, 234.59999999999997) scale(2.3)" fill="rgba(221, 60, 134, 1)"></use><use xlink:href="#SvgjsG2515" transform="translate(469.19999999999993, 312.79999999999995) scale(2.3)" fill="rgba(221, 60, 134, 1)"></use><use xlink:href="#SvgjsG2521" transform="translate(469.19999999999993, 390.99999999999994) scale(2.3)" fill="rgba(221, 60, 134, 1)"></use><use xlink:href="#SvgjsG2518" transform="translate(469.19999999999993, 469.19999999999993) scale(2.3)" fill="rgba(221, 60, 134, 1)"></use><use xlink:href="#SvgjsG2517" transform="translate(469.19999999999993, 547.3999999999999) scale(2.3)" fill="rgba(221, 60, 134, 1)"></use><use xlink:href="#SvgjsG2516" transform="translate(547.3999999999999, 0) scale(2.3)" fill="rgba(221, 60, 134, 1)"></use><use xlink:href="#SvgjsG2520" transform="translate(547.3999999999999, 78.19999999999999) scale(2.3)" fill="rgba(221, 60, 134, 1)"></use><use xlink:href="#SvgjsG2522" transform="translate(547.3999999999999, 156.39999999999998) scale(2.3)" fill="rgba(221, 60, 134, 1)"></use><use xlink:href="#SvgjsG2515" transform="translate(547.3999999999999, 234.59999999999997) scale(2.3)" fill="rgba(221, 60, 134, 1)"></use><use xlink:href="#SvgjsG2521" transform="translate(547.3999999999999, 312.79999999999995) scale(2.3)" fill="rgba(221, 60, 134, 1)"></use><use xlink:href="#SvgjsG2518" transform="translate(547.3999999999999, 390.99999999999994) scale(2.3)" fill="rgba(221, 60, 134, 1)"></use><use xlink:href="#SvgjsG2519" transform="translate(547.3999999999999, 469.19999999999993) scale(2.3)" fill="rgba(221, 60, 134, 1)"></use><use xlink:href="#SvgjsG2521" transform="translate(547.3999999999999, 547.3999999999999) scale(2.3)" fill="rgba(221, 60, 134, 1)"></use><use xlink:href="#SvgjsG2517" transform="translate(625.5999999999999, 0) scale(2.3)" fill="rgba(221, 60, 134, 1)"></use><use xlink:href="#SvgjsG2518" transform="translate(625.5999999999999, 78.19999999999999) scale(2.3)" fill="rgba(221, 60, 134, 1)"></use><use xlink:href="#SvgjsG2518" transform="translate(625.5999999999999, 156.39999999999998) scale(2.3)" fill="rgba(221, 60, 134, 1)"></use><use xlink:href="#SvgjsG2515" transform="translate(625.5999999999999, 234.59999999999997) scale(2.3)" fill="rgba(221, 60, 134, 1)"></use><use xlink:href="#SvgjsG2515" transform="translate(625.5999999999999, 312.79999999999995) scale(2.3)" fill="rgba(221, 60, 134, 1)"></use><use xlink:href="#SvgjsG2521" transform="translate(625.5999999999999, 390.99999999999994) scale(2.3)" fill="rgba(221, 60, 134, 1)"></use><use xlink:href="#SvgjsG2520" transform="translate(625.5999999999999, 469.19999999999993) scale(2.3)" fill="rgba(221, 60, 134, 1)"></use><use xlink:href="#SvgjsG2520" transform="translate(625.5999999999999, 547.3999999999999) scale(2.3)" fill="rgba(221, 60, 134, 1)"></use><use xlink:href="#SvgjsG2518" transform="translate(703.8, 0) scale(2.3)" fill="rgba(221, 60, 134, 1)"></use><use xlink:href="#SvgjsG2517" transform="translate(703.8, 78.19999999999999) scale(2.3)" fill="rgba(221, 60, 134, 1)"></use><use xlink:href="#SvgjsG2521" transform="translate(703.8, 156.39999999999998) scale(2.3)" fill="rgba(221, 60, 134, 1)"></use><use xlink:href="#SvgjsG2516" transform="translate(703.8, 234.59999999999997) scale(2.3)" fill="rgba(221, 60, 134, 1)"></use><use xlink:href="#SvgjsG2522" transform="translate(703.8, 312.79999999999995) scale(2.3)" fill="rgba(221, 60, 134, 1)"></use><use xlink:href="#SvgjsG2515" transform="translate(703.8, 390.99999999999994) scale(2.3)" fill="rgba(221, 60, 134, 1)"></use><use xlink:href="#SvgjsG2518" transform="translate(703.8, 469.19999999999993) scale(2.3)" fill="rgba(221, 60, 134, 1)"></use><use xlink:href="#SvgjsG2519" transform="translate(703.8, 547.3999999999999) scale(2.3)" fill="rgba(221, 60, 134, 1)"></use></g></defs></svg>